<svg id="svg" version="1.1" xmlns="http://www.w3.org/2000/svg" xmlns:xlink="http://www.w3.org/1999/xlink" width="400" height="400" viewBox="0, 0, 400,400"><g id="svgg"><path id="path0" d="M199.212 55.762 C 199.164 62.893,192.662 84.693,187.116 96.317 C 178.170 115.066,169.781 118.069,155.616 107.594 L 152.723 105.455 152.960 107.122 C 153.091 108.039,153.356 109.844,153.549 111.133 C 154.552 117.822,153.701 124.739,151.715 126.040 C 149.146 127.724,139.998 123.216,128.261 114.483 C 126.940 113.500,125.369 112.344,124.771 111.914 C 124.172 111.484,123.147 110.693,122.491 110.156 C 119.514 107.716,113.216 103.058,113.088 103.201 C 113.030 103.267,113.835 104.814,114.878 106.641 C 117.985 112.085,124.415 125.206,126.172 129.688 C 126.635 130.869,127.245 132.363,127.527 133.008 C 130.425 139.631,131.417 143.665,131.285 148.278 C 131.177 152.021,123.870 151.554,109.766 146.903 C 108.584 146.513,106.738 145.924,105.664 145.594 C 104.590 145.264,103.359 144.873,102.930 144.726 C 102.488 144.574,102.321 144.601,102.545 144.787 C 106.525 148.100,114.020 159.318,115.223 163.763 C 118.037 174.165,106.756 183.007,80.469 191.003 C 78.213 191.689,75.928 192.408,75.391 192.601 C 74.268 193.005,62.578 195.808,59.375 196.441 C 58.193 196.674,56.172 197.073,54.883 197.328 L 52.539 197.790 56.641 198.274 C 61.342 198.830,69.093 200.515,73.633 201.969 C 83.473 205.119,84.851 205.644,91.733 208.856 C 111.516 218.091,114.349 226.386,102.168 239.415 L 100.195 241.525 101.758 241.258 C 113.522 239.245,117.632 239.397,121.545 241.986 C 123.190 243.075,125.000 245.285,125.000 246.205 C 125.000 246.548,125.176 246.938,125.391 247.070 C 125.916 247.395,125.890 254.589,125.356 256.928 C 124.863 259.082,123.550 263.509,123.065 264.648 C 122.882 265.078,122.336 266.484,121.852 267.773 C 121.368 269.063,120.494 271.172,119.910 272.461 C 119.325 273.750,118.537 275.508,118.158 276.367 C 117.427 278.023,109.497 293.955,107.513 297.754 C 106.868 298.989,106.406 300.000,106.487 300.000 C 106.632 300.000,109.702 297.744,111.040 296.654 C 111.418 296.346,111.887 296.094,112.081 296.094 C 112.276 296.094,112.493 295.944,112.565 295.761 C 112.679 295.471,120.455 290.264,127.539 285.735 C 131.790 283.016,141.538 278.204,145.267 276.982 C 155.382 273.668,159.602 277.209,159.540 288.957 L 159.512 294.125 161.495 292.183 C 171.016 282.854,178.028 285.118,184.982 299.769 C 187.101 304.233,187.648 305.617,190.322 313.281 C 192.264 318.845,192.952 321.119,195.139 329.199 C 196.179 333.041,197.712 340.382,197.687 341.406 C 197.669 342.177,197.744 342.259,198.045 341.797 C 198.254 341.475,198.428 340.581,198.432 339.811 C 198.446 336.490,201.183 323.743,203.583 315.820 C 205.443 309.680,207.026 305.002,208.209 302.148 C 208.387 301.719,208.852 300.576,209.241 299.609 C 215.676 283.645,225.469 277.629,236.499 282.864 C 237.345 283.265,238.164 283.594,238.320 283.594 C 240.978 283.594,252.997 293.337,257.721 299.321 C 258.697 300.558,259.596 301.472,259.718 301.350 C 259.839 301.229,259.768 301.007,259.559 300.858 C 259.350 300.708,259.163 300.059,259.144 299.414 C 259.124 298.770,258.795 295.957,258.413 293.164 C 256.546 279.511,259.031 274.219,267.309 274.219 C 269.112 274.219,271.096 274.373,271.719 274.562 C 277.130 276.202,278.762 276.747,279.082 277.023 C 279.286 277.200,279.676 277.344,279.949 277.344 C 280.495 277.344,283.196 278.526,288.281 280.990 C 290.107 281.875,291.740 282.664,291.909 282.743 C 292.226 282.892,291.656 281.820,289.453 278.125 C 288.203 276.029,287.466 274.756,286.000 272.168 C 282.225 265.503,279.741 259.809,277.690 253.125 C 275.270 245.234,279.608 241.478,290.703 241.860 C 292.809 241.933,294.532 241.928,294.532 241.849 C 294.531 241.770,293.571 240.669,292.398 239.402 C 285.499 231.950,283.858 223.503,288.149 217.531 C 291.688 212.605,304.753 206.105,319.336 202.017 C 327.907 199.614,331.270 198.921,337.305 198.319 C 338.606 198.189,338.455 198.152,332.813 197.233 C 316.413 194.561,300.389 189.371,295.647 185.197 C 290.793 180.925,291.799 172.375,297.958 165.559 C 298.712 164.725,299.216 163.929,299.078 163.792 C 298.941 163.654,298.828 163.703,298.828 163.900 C 298.828 164.294,298.643 164.309,289.648 164.638 L 283.398 164.867 281.250 163.781 C 277.931 162.104,277.006 160.090,277.688 156.031 C 278.194 153.019,278.361 152.472,279.743 149.321 C 280.142 148.410,280.469 147.543,280.469 147.394 C 280.469 146.937,284.306 139.552,285.949 136.847 C 286.802 135.444,287.500 134.239,287.500 134.171 C 287.500 133.835,291.565 127.522,291.854 127.409 C 292.037 127.337,292.188 127.113,292.188 126.910 C 292.188 126.708,293.773 124.173,295.710 121.279 C 297.647 118.384,299.132 116.016,299.010 116.016 C 298.887 116.016,297.082 117.007,294.999 118.218 C 292.915 119.430,290.068 121.032,288.672 121.780 C 287.275 122.527,285.254 123.618,284.180 124.204 C 283.105 124.791,281.260 125.757,280.078 126.351 C 278.896 126.945,277.578 127.618,277.148 127.846 C 265.790 133.882,258.480 134.732,256.295 130.271 C 254.613 126.836,254.179 118.964,255.272 111.719 C 256.477 103.733,256.629 102.827,256.868 102.206 C 257.010 101.835,256.922 101.563,256.659 101.563 C 256.409 101.563,256.313 101.738,256.445 101.953 C 256.578 102.168,256.499 102.344,256.270 102.344 C 256.041 102.344,254.580 103.418,253.024 104.732 C 233.292 121.391,220.802 117.741,210.763 92.383 C 209.329 88.761,206.654 81.354,206.247 79.883 C 206.069 79.238,205.379 76.865,204.713 74.609 C 203.342 69.966,201.914 64.177,201.003 59.570 C 200.080 54.906,200.017 54.688,199.602 54.688 C 199.391 54.688,199.216 55.171,199.212 55.762 M201.766 122.266 C 206.792 142.365,212.930 151.609,220.232 150.077 C 224.071 149.272,230.994 143.978,234.570 139.113 C 235.882 137.328,236.488 137.028,235.957 138.426 C 233.669 144.444,232.928 155.492,234.680 157.454 C 237.217 160.292,246.195 158.711,257.212 153.485 C 260.141 152.096,260.230 151.610,256.347 158.203 C 244.518 178.285,243.855 183.640,252.653 188.034 C 258.055 190.732,278.532 195.961,284.330 196.122 C 284.892 196.138,282.451 196.917,278.906 197.853 C 250.942 205.239,244.934 212.540,260.261 220.512 C 264.537 222.736,264.619 222.862,261.417 222.282 C 245.351 219.368,243.470 226.702,256.188 242.671 L 258.596 245.694 254.982 243.788 C 247.697 239.946,242.251 238.981,240.347 241.193 C 237.896 244.040,241.066 256.060,248.379 271.654 C 248.473 271.854,246.280 269.921,243.505 267.357 C 228.588 253.573,223.359 250.190,216.992 250.202 C 208.386 250.218,204.370 255.615,197.267 276.713 C 194.661 284.453,194.651 284.474,194.399 282.633 C 193.037 272.698,188.279 257.514,185.306 253.616 C 182.417 249.828,177.724 251.069,173.438 256.756 C 171.704 259.056,171.481 259.046,172.090 256.700 C 176.520 239.621,165.875 239.974,142.492 257.682 C 137.727 261.291,137.716 261.280,140.964 256.240 C 149.897 242.378,153.230 235.905,153.452 231.989 L 153.600 229.361 152.313 228.695 C 151.013 228.023,145.505 228.056,141.797 228.758 L 140.430 229.017 142.664 227.192 C 152.509 219.150,152.522 213.156,142.707 208.100 C 136.564 204.936,119.215 200.000,114.239 200.000 C 113.737 200.000,113.219 199.824,113.086 199.609 C 112.953 199.395,113.225 199.219,113.691 199.219 C 115.272 199.219,128.688 196.103,133.957 194.511 C 150.689 189.459,152.180 185.216,141.062 174.290 C 138.703 171.971,137.645 170.704,138.221 170.884 C 148.268 174.024,155.462 172.875,155.467 168.129 C 155.473 163.281,149.661 149.542,142.855 138.318 C 142.102 137.075,142.316 137.175,146.122 139.834 C 173.460 158.933,179.880 159.335,174.322 141.602 C 174.165 141.104,174.971 141.631,176.554 143.063 C 185.206 150.893,189.717 148.538,194.880 133.492 C 196.242 129.526,197.118 126.535,199.657 117.188 C 199.984 115.982,200.184 115.675,200.291 116.211 C 200.376 116.641,201.040 119.365,201.766 122.266 " stroke="none" fill="#c04a33" fill-rule="evenodd"></path><path id="path1" d="M199.657 117.188 C 197.118 126.535,196.242 129.526,194.880 133.492 C 189.717 148.538,185.206 150.893,176.554 143.063 C 174.971 141.631,174.165 141.104,174.322 141.602 C 179.648 158.593,173.959 158.864,150.391 142.742 C 146.846 140.317,143.770 138.295,143.555 138.248 C 143.340 138.202,142.929 137.882,142.642 137.539 C 142.355 137.195,142.467 137.529,142.891 138.281 C 146.635 144.922,147.961 147.424,149.763 151.249 C 156.246 165.014,157.013 170.976,152.462 172.239 C 149.656 173.019,143.034 172.388,138.221 170.884 C 137.645 170.704,138.703 171.971,141.062 174.290 C 152.180 185.216,150.689 189.459,133.957 194.511 C 128.688 196.103,115.272 199.219,113.691 199.219 C 113.225 199.219,112.953 199.395,113.086 199.609 C 113.219 199.824,113.737 200.000,114.239 200.000 C 119.215 200.000,136.564 204.936,142.707 208.100 C 152.522 213.156,152.509 219.150,142.664 227.192 L 140.430 229.017 141.797 228.758 C 145.505 228.056,151.013 228.023,152.313 228.695 L 153.600 229.361 153.452 231.989 C 153.230 235.905,149.897 242.378,140.964 256.240 C 137.716 261.280,137.727 261.291,142.492 257.682 C 165.875 239.974,176.520 239.621,172.090 256.700 C 171.481 259.046,171.704 259.056,173.438 256.756 C 177.724 251.069,182.417 249.828,185.306 253.616 C 188.279 257.514,193.037 272.698,194.399 282.633 C 194.651 284.474,194.661 284.453,197.267 276.713 C 204.370 255.615,208.386 250.218,216.992 250.202 C 223.352 250.190,228.593 253.578,243.449 267.305 C 246.193 269.840,248.438 271.738,248.438 271.523 C 248.438 271.308,248.130 270.953,247.754 270.734 C 247.378 270.515,247.205 270.331,247.369 270.324 C 247.533 270.318,247.383 269.653,247.037 268.848 C 235.188 241.278,237.341 234.485,254.982 243.788 L 258.596 245.694 256.188 242.671 C 243.470 226.702,245.351 219.368,261.417 222.282 C 264.619 222.862,264.537 222.736,260.261 220.512 C 244.934 212.540,250.942 205.239,278.906 197.853 C 282.451 196.917,284.892 196.138,284.330 196.122 C 278.532 195.961,258.055 190.732,252.653 188.034 C 243.855 183.640,244.518 178.285,256.347 158.203 C 260.230 151.610,260.141 152.096,257.212 153.485 C 246.095 158.758,237.220 160.296,234.630 157.398 L 233.493 156.125 233.714 151.402 C 233.852 148.472,234.303 145.123,234.902 142.578 C 235.434 140.322,235.816 138.423,235.751 138.357 C 235.686 138.291,233.636 140.224,231.195 142.653 C 222.499 151.310,217.612 152.429,212.189 147.005 C 208.240 143.056,202.886 129.199,200.291 116.211 C 200.184 115.675,199.984 115.982,199.657 117.188 M204.150 165.554 C 207.991 177.542,211.645 178.727,225.452 172.463 L 230.005 170.398 227.509 174.206 C 218.210 188.400,220.642 191.725,241.964 193.962 L 244.669 194.246 240.596 195.685 C 225.323 201.079,223.065 205.829,231.626 214.551 C 233.471 216.431,234.888 217.967,234.775 217.964 C 234.663 217.961,232.993 217.523,231.064 216.989 C 223.291 214.839,219.531 215.305,219.531 218.418 C 219.531 220.756,224.404 230.541,228.625 236.681 C 230.040 238.739,229.919 238.673,224.859 234.615 C 214.753 226.510,209.166 224.480,208.388 228.631 L 208.140 229.953 206.617 229.546 C 202.657 228.489,199.784 233.687,197.188 246.609 L 196.319 250.935 195.625 246.268 C 192.707 226.663,187.853 219.940,179.013 223.259 C 175.591 224.543,163.823 231.620,163.063 232.850 C 162.943 233.044,162.690 233.203,162.500 233.203 C 162.311 233.203,163.630 231.138,165.432 228.613 C 179.368 209.084,177.474 204.391,154.207 200.794 C 151.399 200.360,150.158 200.035,150.781 199.897 C 151.318 199.777,153.691 199.321,156.055 198.882 C 167.290 196.797,169.321 195.155,165.568 191.188 L 163.559 189.063 168.010 189.054 C 179.057 189.033,178.991 183.541,167.739 166.309 C 166.371 164.214,165.328 162.500,165.422 162.500 C 165.515 162.500,167.861 164.214,170.636 166.309 C 187.838 179.294,192.305 176.978,199.451 151.367 L 200.105 149.023 201.412 155.056 C 202.131 158.374,203.363 163.098,204.150 165.554 " stroke="none" fill="#f58c2e" fill-rule="evenodd"></path><path id="path2" d="M199.451 151.367 C 192.305 176.978,187.838 179.294,170.636 166.309 C 167.861 164.214,165.515 162.500,165.422 162.500 C 165.328 162.500,166.371 164.214,167.739 166.309 C 178.991 183.541,179.057 189.033,168.010 189.054 L 163.559 189.063 165.568 191.188 C 169.321 195.155,167.290 196.797,156.055 198.882 C 153.691 199.321,151.318 199.777,150.781 199.897 C 150.158 200.035,151.399 200.360,154.207 200.794 C 177.474 204.391,179.368 209.084,165.432 228.613 C 163.630 231.138,162.311 233.203,162.500 233.203 C 162.690 233.203,162.943 233.044,163.063 232.850 C 163.823 231.620,175.591 224.543,179.013 223.259 C 187.853 219.940,192.707 226.663,195.625 246.268 L 196.319 250.935 197.188 246.609 C 199.784 233.687,202.657 228.489,206.617 229.546 L 208.140 229.953 208.388 228.631 C 209.166 224.480,214.753 226.510,224.859 234.615 C 229.919 238.673,230.040 238.739,228.625 236.681 C 224.404 230.541,219.531 220.756,219.531 218.418 C 219.531 215.305,223.291 214.839,231.064 216.989 C 232.993 217.523,234.663 217.961,234.775 217.964 C 234.888 217.967,233.471 216.431,231.626 214.551 C 223.065 205.829,225.323 201.079,240.596 195.685 L 244.669 194.246 241.964 193.962 C 220.642 191.725,218.210 188.400,227.509 174.206 L 230.005 170.398 225.452 172.463 C 209.544 179.681,206.226 177.278,201.412 155.056 L 200.105 149.023 199.451 151.367 " stroke="none" fill="#fbc63e" fill-rule="evenodd"></path></g></svg>